# xmcd
#
# Track frame offsets:
#  150
#  47716
#  77935
#  118925
#  156362
#  194713
#  219860
#  252076
#
# Disc length: 3935 seconds
#
# Revision: 0
# Processed by: cddbd v1.5PL3 Copyright (c) Steve Scherf et al.
# Submitted via: AltoMP3_Maker 3.0
#
DISCID=710f5d08
DTITLE=Ashni,Kayente,Nizaam - XXX - Clusive
DYEAR=1900
DGENRE=
TTITLE0=Sare Zamane Pe - Aaj Unse Pehli
TTITLE1=Tera Mera Pyaar
TTITLE2=Eh Meisje Eh Sweet
TTITLE3=Teri Ishq Ki
TTITLE4=Tohe Leke Sawaria Babuji
TTITLE5=Kaisa Aaj Haseen
TTITLE6=Mi Wani Tak
TTITLE7=Amit Ke Pleti Mix
EXTD=
EXTT0=
EXTT1=
EXTT2=
EXTT3=
EXTT4=
EXTT5=
EXTT6=
EXTT7=
PLAYORDER=
